<svg xmlns="http://www.w3.org/2000/svg" viewBox="0 0 492.73 517.31"><defs><style>.cls-1{fill:none;}.cls-2{fill:#1e1f26;}.cls-3{fill:#131417;}.cls-4{fill:#fda311;}</style></defs><title>taxi-bg02</title><g id="Vrstva_2" data-name="Vrstva 2"><g id="Layer_1" data-name="Layer 1"><polygon class="cls-1" points="25.06 465.49 25.06 259.38 29.32 259.38 30.75 215.31 37.85 215.31 37.85 202.51 47.09 202.51 47.09 174.09 53.49 174.09 53.49 169.82 110.35 169.82 110.35 179.06 114.61 179.06 114.61 197.54 119.59 197.54 119.59 181.9 123.85 181.9 123.85 177.64 134.52 177.64 134.52 168.4 140.91 168.4 140.91 173.37 146.6 173.37 146.6 180.48 162.94 180.48 162.94 216.02 167.21 216.02 167.21 122.2 173.61 122.2 173.61 140.68 183.56 140.68 183.56 129.31 229.04 129.31 229.04 138.55 232.6 138.55 232.6 123.62 236.86 123.62 236.86 220.99 248.95 220.99 248.95 191.14 253.92 191.14 253.92 134.99 258.19 134.99 258.19 110.12 290.17 110.12 290.17 126.46 300.12 126.46 300.12 163.42 305.1 163.42 305.1 159.16 305.1 119.36 318.6 119.36 318.6 101.59 350.58 101.59 350.58 124.33 356.98 124.33 356.98 187.59 362.67 187.59 362.67 222.41 392.52 222.41 392.52 228.1 404.6 228.1 404.6 221.7 412.42 221.7 412.42 225.26 418.1 225.26 418.1 237.34 425.21 237.34 425.21 310.55 435.16 310.55 435.16 301.31 440.85 301.31 440.85 316.23 445.82 316.23 445.82 311.97 454.35 311.97 454.35 306.99 459.33 306.99 459.33 300.6 463.59 300.6 463.59 292.78 472.12 292.78 472.12 304.15 475.68 304.15 475.68 261.51 492.73 261.51 492.73 0 0 0 0 492.73 492.73 492.73 492.73 465.49 25.06 465.49"/><polygon class="cls-2" points="475.68 304.15 472.12 304.15 472.12 292.78 463.59 292.78 463.59 300.6 459.33 300.6 459.33 306.99 454.35 306.99 454.35 311.97 445.82 311.97 445.82 316.23 440.85 316.23 440.85 301.31 435.16 301.31 435.16 310.55 425.21 310.55 425.21 237.34 418.1 237.34 418.1 225.26 412.42 225.26 412.42 221.7 404.6 221.7 404.6 228.1 392.52 228.1 392.52 222.41 362.67 222.41 362.67 187.59 356.98 187.59 356.98 124.33 350.58 124.33 350.58 101.59 318.6 101.59 318.6 119.36 305.1 119.36 305.1 159.16 305.1 163.42 300.12 163.42 300.12 126.46 290.17 126.46 290.17 110.12 258.19 110.12 258.19 134.99 253.92 134.99 253.92 191.14 248.95 191.14 248.95 220.99 236.86 220.99 236.86 123.62 232.6 123.62 232.6 138.55 229.04 138.55 229.04 129.31 183.56 129.31 183.56 140.68 173.61 140.68 173.61 122.2 167.21 122.2 167.21 216.02 162.94 216.02 162.94 180.48 146.6 180.48 146.6 173.37 140.91 173.37 140.91 168.4 134.52 168.4 134.52 177.64 123.85 177.64 123.85 181.9 119.59 181.9 119.59 197.54 114.61 197.54 114.61 179.06 110.35 179.06 110.35 169.82 53.49 169.82 53.49 174.09 47.09 174.09 47.09 202.51 37.85 202.51 37.85 215.31 30.75 215.31 29.32 259.38 25.06 259.38 25.06 465.49 492.73 465.49 492.73 261.51 475.68 261.51 475.68 304.15"/><polygon class="cls-1" points="24.88 465.49 24.88 372.21 35.01 372.21 35.01 364.21 46.73 364.21 46.73 353.55 56.85 353.55 56.85 362.08 70.7 362.08 70.7 290.12 74.96 290.12 74.96 252.8 78.69 252.8 78.69 233.61 86.69 245.34 86.69 253.87 94.14 253.87 100.54 258.67 100.54 250.14 120.25 250.14 120.25 341.82 128.24 341.82 128.24 347.15 133.04 347.15 133.04 341.82 139.43 341.82 139.43 353.02 146.36 353.02 146.36 240.01 155.41 240.01 155.41 233.08 158.61 233.08 158.61 217.09 176.19 217.09 176.19 240.67 178.32 240.67 178.32 265.46 179.92 265.46 179.92 343.95 197.5 343.95 197.5 327.96 241.19 327.96 241.19 335.43 251.32 335.43 251.32 349.29 256.64 349.29 256.64 397.79 265.7 397.79 265.7 189.9 301.4 189.9 301.4 245.87 314.72 245.87 325.91 229.88 356.27 229.88 356.27 246.4 397.3 246.4 397.3 343.95 402.63 343.95 402.63 348.75 409.55 348.75 409.55 355.68 396.77 355.68 396.77 379.67 412.75 379.67 412.75 391.93 426.07 391.93 426.07 400.99 435.66 400.99 435.66 394.06 445.25 394.06 445.25 387.13 462.83 387.13 462.83 394.6 467.1 394.6 467.1 370.61 484.68 370.61 484.68 380.2 491.6 380.2 491.6 389.8 492.73 389.8 492.73 24.59 0 24.59 0 517.31 492.73 517.31 492.73 465.49 24.88 465.49"/><polygon class="cls-3" points="491.6 380.2 484.68 380.2 484.68 370.61 467.1 370.61 467.1 394.6 462.83 394.6 462.83 387.13 445.25 387.13 445.25 394.06 435.66 394.06 435.66 400.99 426.07 400.99 426.07 391.93 412.75 391.93 412.75 379.67 396.77 379.67 396.77 355.68 409.55 355.68 409.55 348.75 402.63 348.75 402.63 343.95 397.3 343.95 397.3 246.4 356.27 246.4 356.27 229.88 325.91 229.88 314.72 245.87 301.4 245.87 301.4 189.9 265.7 189.9 265.7 397.79 256.64 397.79 256.64 349.29 251.32 349.29 251.32 335.43 241.19 335.43 241.19 327.96 197.5 327.96 197.5 343.95 179.92 343.95 179.92 265.46 178.32 265.46 178.32 240.67 176.19 240.67 176.19 217.09 158.61 217.09 158.61 233.08 155.41 233.08 155.41 240.01 146.36 240.01 146.36 353.02 139.43 353.02 139.43 341.82 133.04 341.82 133.04 347.15 128.24 347.15 128.24 341.82 120.25 341.82 120.25 250.14 100.54 250.14 100.54 258.67 94.14 253.87 86.69 253.87 86.69 245.34 78.69 233.61 78.69 252.8 74.96 252.8 74.96 290.12 70.7 290.12 70.7 362.08 56.85 362.08 56.85 353.55 46.73 353.55 46.73 364.21 35.01 364.21 35.01 372.21 24.88 372.21 24.88 465.49 492.73 465.49 492.73 389.8 491.6 389.8 491.6 380.2"/><path class="cls-4" d="M80.49,196.42a13.14,13.14,0,1,0-23.79,7.69l10.06,21,11.25-21h0A13,13,0,0,0,80.49,196.42ZM67.35,202a5.84,5.84,0,1,1,5.84-5.84A5.83,5.83,0,0,1,67.35,202Z"/><path class="cls-4" d="M244.8,279.15a18.2,18.2,0,1,0-32.94,10.65L225.78,319l15.58-29.15h0A18.09,18.09,0,0,0,244.8,279.15Zm-18.19,7.73a8.09,8.09,0,1,1,8.08-8.09A8.09,8.09,0,0,1,226.61,286.88Z"/><path class="cls-4" d="M468.69,295.54a13.14,13.14,0,1,0-23.79,7.69l10.05,21,11.25-21h0A13.1,13.1,0,0,0,468.69,295.54Zm-13.14,5.58a5.84,5.84,0,1,1,5.84-5.83A5.84,5.84,0,0,1,455.55,301.12Z"/><path class="cls-4" d="M442.41,372.05a9.1,9.1,0,1,0-16.47,5.32l7,14.58,7.79-14.58h0A9,9,0,0,0,442.41,372.05Zm-9.1,3.86a4,4,0,1,1,4-4A4,4,0,0,1,433.31,375.91Z"/></g></g></svg>